<?xml version="1.0" encoding="utf-8"?>
<!-- Generator: Adobe Illustrator 16.0.0, SVG Export Plug-In . SVG Version: 6.00 Build 0)  -->
<!DOCTYPE svg PUBLIC "-//W3C//DTD SVG 1.1//EN" "http://www.w3.org/Graphics/SVG/1.1/DTD/svg11.dtd">
<svg version="1.1" id="Layer_1" xmlns="http://www.w3.org/2000/svg" xmlns:xlink="http://www.w3.org/1999/xlink" x="0px" y="0px"
	 width="25px" height="26px" viewBox="0 0 25 26" enable-background="new 0 0 25 26" xml:space="preserve">
<path fill="#9AC656" d="M24.769,20.863c-0.514-1.646-1.321-2.831-2.331-3.771c0.765-1.562,1.195-3.315,1.195-5.168
	c0-6.517-5.301-11.817-11.817-11.817C5.3,0.106,0,5.407,0,11.924C0,18.439,5.3,23.74,11.816,23.74c2.477,0,4.777-0.768,6.678-2.075
	c-4.065,0.272-10.642-0.224-13.573-5.639h0.001c-0.718-1.204-1.14-2.603-1.14-4.103c0-4.43,3.604-8.033,8.033-8.033
	c4.429,0,8.033,3.604,8.033,8.033c0,1.083-0.219,2.113-0.608,3.058c-0.026-0.014-0.052-0.027-0.078-0.04
	c-0.341-0.172-2.96-1.457-3.246-1.599c-1.573-0.791-3.071-1.675-3.819-2.819c-0.124,0.349-0.22,0.473-0.28,1.144
	c-0.109,1.231,0.799,2.624,1.943,3.865c0.995,1.075,2.206,2.01,3.527,2.913c2.154,1.473,6.25,4.105,6.828,7.448
	c0.125-0.241,0.259-0.52,0.386-0.827C25.076,23.669,25.138,22.042,24.769,20.863z"/>
</svg>
