<?xml version="1.0" encoding="utf-8"?>
<!-- Generator: Adobe Illustrator 16.0.0, SVG Export Plug-In . SVG Version: 6.00 Build 0)  -->
<!DOCTYPE svg PUBLIC "-//W3C//DTD SVG 1.1//EN" "http://www.w3.org/Graphics/SVG/1.1/DTD/svg11.dtd">
<svg version="1.1" id="Layer_1" xmlns="http://www.w3.org/2000/svg" xmlns:xlink="http://www.w3.org/1999/xlink" x="0px" y="0px"
	 width="34px" height="34px" viewBox="0 0 34 34" enable-background="new 0 0 34 34" xml:space="preserve">
<g>
	<rect fill="none" width="34" height="34"/>
	<g>
		<path fill="#A2B4BA" d="M30.709,8.194H27.85V6.496c0-0.46-0.314-0.861-0.762-0.971c-0.752-0.185-1.531-0.278-2.316-0.278
			c-3.551,0-6.5,1.869-7.772,2.818c-1.271-0.949-4.22-2.818-7.77-2.818c-0.787,0-1.567,0.094-2.318,0.278
			C6.464,5.635,6.15,6.036,6.15,6.496v1.698h-2.86c-0.552,0-1,0.448-1,1v16.169c0,0.552,0.447,1,0.999,1
			c0.066,0,6.678,0.047,13.235,3.579c0.151,0.081,0.313,0.119,0.473,0.119c0.001,0,0.003,0,0.004,0c0.16,0,0.322-0.038,0.473-0.119
			c6.535-3.521,13.17-3.579,13.236-3.579c0.553-0.001,0.998-0.449,0.998-1V9.194C31.709,8.642,31.264,8.194,30.709,8.194z
			 M25.85,7.321v14.481c-1.691,0.299-5.367,1.199-7.85,3.639v-7.189V9.816c0.914-0.712,3.604-2.57,6.771-2.57
			C25.133,7.246,25.494,7.271,25.85,7.321z M8.15,7.321c0.355-0.05,0.716-0.075,1.079-0.075c3.149,0,5.851,1.86,6.769,2.571
			L16,19.606v5.834c-2.481-2.438-6.158-3.341-7.848-3.64L8.15,7.321L8.15,7.321z M4.291,10.194h1.861v12.471
			c0,0.515,0.389,0.943,0.899,0.995c0.058,0.006,4.729,0.516,7.468,3.139c-4.427-1.808-8.427-2.274-10.228-2.395V10.194
			L4.291,10.194z M29.709,24.404c-1.801,0.119-5.795,0.587-10.219,2.391c2.738-2.608,7.4-3.129,7.459-3.135
			c0.51-0.053,0.898-0.482,0.898-0.995V10.194h1.861V24.404L29.709,24.404z"/>
		<path fill="#A2B4BA" d="M13.975,11.096h-3.563c-0.442,0-0.8,0.358-0.8,0.8c0,0.442,0.358,0.8,0.8,0.8h3.563
			c0.442,0,0.8-0.358,0.8-0.8C14.774,11.454,14.417,11.096,13.975,11.096z"/>
		<path fill="#A2B4BA" d="M13.975,13.889h-3.563c-0.442,0-0.8,0.358-0.8,0.8c0,0.442,0.358,0.8,0.8,0.8h3.563
			c0.442,0,0.8-0.358,0.8-0.8C14.774,14.247,14.417,13.889,13.975,13.889z"/>
		<path fill="#A2B4BA" d="M13.975,16.681h-3.563c-0.442,0-0.8,0.358-0.8,0.8s0.358,0.8,0.8,0.8h3.563c0.442,0,0.8-0.357,0.8-0.8
			S14.417,16.681,13.975,16.681z"/>
		<path fill="#A2B4BA" d="M20.023,12.696h3.564c0.441,0,0.801-0.358,0.801-0.8c0-0.442-0.359-0.8-0.801-0.8h-3.564
			c-0.441,0-0.799,0.358-0.799,0.8C19.225,12.338,19.582,12.696,20.023,12.696z"/>
		<path fill="#A2B4BA" d="M20.023,15.489h3.564c0.441,0,0.801-0.358,0.801-0.8c0-0.442-0.359-0.8-0.801-0.8h-3.564
			c-0.441,0-0.799,0.358-0.799,0.8C19.225,15.131,19.582,15.489,20.023,15.489z"/>
		<path fill="#A2B4BA" d="M20.023,18.281h3.564c0.441,0,0.801-0.357,0.801-0.8s-0.359-0.8-0.801-0.8h-3.564
			c-0.441,0-0.799,0.358-0.799,0.8S19.582,18.281,20.023,18.281z"/>
	</g>
</g>
</svg>
