<?xml version="1.0" encoding="utf-8"?>
<!-- Generator: Adobe Illustrator 16.0.0, SVG Export Plug-In . SVG Version: 6.00 Build 0)  -->
<!DOCTYPE svg PUBLIC "-//W3C//DTD SVG 1.1//EN" "http://www.w3.org/Graphics/SVG/1.1/DTD/svg11.dtd">
<svg version="1.1" id="Layer_1" xmlns="http://www.w3.org/2000/svg" xmlns:xlink="http://www.w3.org/1999/xlink" x="0px" y="0px"
	 width="34px" height="34px" viewBox="0 0 34 34" enable-background="new 0 0 34 34" xml:space="preserve">
<g>
	<g>
		<rect fill="none" width="34" height="34"/>
	</g>
	<g>
		<path fill="#EE787B" d="M9.731,23.565c0.19,0.229,0.472,0.36,0.769,0.36h13c0.297,0,0.578-0.132,0.769-0.36
			s0.269-0.529,0.215-0.821l-2-10.803c-0.088-0.474-0.501-0.818-0.983-0.818h-9c-0.482,0-0.896,0.344-0.983,0.818l-2,10.803
			C9.462,23.036,9.541,23.337,9.731,23.565z M13.332,13.123h7.336l1.63,8.803H11.702L13.332,13.123z"/>
		<path fill="#EE787B" d="M17,7.332c0.552,0,1-0.448,1-1V4.137c0-0.552-0.448-1-1-1s-1,0.448-1,1v2.195
			C16,6.884,16.448,7.332,17,7.332z"/>
		<path fill="#EE787B" d="M24.24,9.834c0.285,0,0.568-0.121,0.767-0.356l1.424-1.693c0.354-0.423,0.301-1.054-0.122-1.409
			c-0.423-0.355-1.053-0.3-1.409,0.122L23.476,8.19c-0.354,0.423-0.301,1.054,0.122,1.409C23.785,9.757,24.014,9.834,24.24,9.834z"
			/>
		<path fill="#EE787B" d="M27.693,15.441c0.09,0,0.181-0.012,0.271-0.037l2.271-0.637c0.531-0.149,0.842-0.701,0.692-1.233
			c-0.149-0.532-0.702-0.845-1.233-0.693l-2.271,0.637c-0.531,0.149-0.842,0.701-0.692,1.232
			C26.855,15.153,27.257,15.441,27.693,15.441z"/>
		<path fill="#EE787B" d="M7.443,20.142C7.294,19.609,6.742,19.3,6.21,19.449l-2.447,0.688c-0.532,0.149-0.842,0.702-0.692,1.233
			C3.195,21.812,3.596,22.1,4.033,22.1c0.089,0,0.181-0.012,0.271-0.037l2.447-0.688C7.283,21.226,7.593,20.673,7.443,20.142z"/>
		<path fill="#EE787B" d="M30.133,20.602l-2.135-0.68c-0.525-0.169-1.089,0.123-1.256,0.649c-0.168,0.526,0.123,1.089,0.648,1.257
			l2.135,0.68c0.102,0.032,0.203,0.047,0.305,0.047c0.423,0,0.816-0.271,0.951-0.696C30.949,21.332,30.658,20.77,30.133,20.602z"/>
		<path fill="#EE787B" d="M3.867,14.298l1.998,0.641c0.102,0.032,0.204,0.048,0.305,0.048c0.423,0,0.816-0.271,0.952-0.694
			c0.169-0.526-0.121-1.089-0.647-1.258l-1.998-0.641c-0.524-0.17-1.088,0.121-1.257,0.647C3.051,13.566,3.341,14.129,3.867,14.298z
			"/>
		<path fill="#EE787B" d="M8.973,9.384c0.198,0.237,0.482,0.36,0.769,0.36c0.226,0,0.453-0.076,0.64-0.231
			c0.424-0.354,0.482-0.984,0.128-1.409L9.146,6.465C8.792,6.041,8.161,5.983,7.737,6.337C7.312,6.69,7.255,7.321,7.608,7.746
			L8.973,9.384z"/>
		<path fill="#EE787B" d="M9.047,25.395c-0.552,0-1,0.447-1,1s0.448,1,1,1h15.906c0.553,0,1-0.447,1-1s-0.447-1-1-1H9.047z"/>
		<path fill="#EE787B" d="M25.994,28.863H8.006c-0.552,0-1,0.447-1,1s0.448,1,1,1h17.988c0.553,0,1-0.447,1-1
			S26.547,28.863,25.994,28.863z"/>
	</g>
</g>
</svg>
