<?xml version="1.0" encoding="utf-8"?>
<!-- Generator: Adobe Illustrator 16.0.0, SVG Export Plug-In . SVG Version: 6.00 Build 0)  -->
<!DOCTYPE svg PUBLIC "-//W3C//DTD SVG 1.1//EN" "http://www.w3.org/Graphics/SVG/1.1/DTD/svg11.dtd">
<svg version="1.1" id="Layer_1" xmlns="http://www.w3.org/2000/svg" xmlns:xlink="http://www.w3.org/1999/xlink" x="0px" y="0px"
	 width="34px" height="34px" viewBox="0 0 34 34" enable-background="new 0 0 34 34" xml:space="preserve">
<g>
	<rect fill="none" width="34" height="34"/>
	<g>
		<path fill="#71C2EE" d="M20.999,9.302c-2.43-1.412-5.571-1.41-7.995-0.002c-1.217,0.703-2.19,1.676-2.894,2.891
			c-0.705,1.216-1.062,2.56-1.062,3.996c0,2.412,1.262,4.229,1.8,4.891c0.412,0.518,0.715,0.928,0.929,1.264l0.152,0.231
			c0.285,0.43,0.676,1.019,0.724,1.373c0.055,0.403,0.137,1.223,0.139,1.651c0.002,0.289,0.129,0.563,0.349,0.753
			c0.183,0.156,0.414,0.241,0.651,0.241c0.048,0,0.097-0.004,0.145-0.011l6.418-0.939c0.47-0.068,0.827-0.458,0.854-0.932
			c0.051-0.888,0.777-2.002,1.021-2.376c0.21-0.329,0.521-0.751,0.919-1.25c0.543-0.668,1.805-2.484,1.805-4.896
			c0-1.438-0.358-2.782-1.064-3.995C23.184,10.974,22.211,10.001,20.999,9.302z M21.59,19.828c-0.453,0.568-0.796,1.035-1.042,1.421
			c-0.421,0.646-0.956,1.548-1.205,2.519l-4.622,0.677c-0.03-0.318-0.064-0.604-0.087-0.768c-0.107-0.807-0.623-1.585-1.038-2.21
			l-0.139-0.21c-0.247-0.387-0.589-0.854-1.052-1.434c-0.318-0.393-1.357-1.814-1.357-3.637c0-1.094,0.26-2.073,0.793-2.993
			c0.533-0.922,1.241-1.629,2.166-2.163c0.918-0.533,1.897-0.793,2.993-0.793s2.075,0.26,2.996,0.795
			c0.92,0.531,1.627,1.237,2.162,2.163c0.534,0.918,0.794,1.896,0.794,2.991C22.952,18.009,21.913,19.431,21.59,19.828z"/>
		<path fill="#71C2EE" d="M19.643,26.624l-5.59,0.872c-0.546,0.085-0.919,0.597-0.834,1.143c0.077,0.493,0.503,0.846,0.987,0.846
			c0.051,0,0.103-0.004,0.155-0.012l5.59-0.872c0.546-0.085,0.919-0.597,0.834-1.143C20.7,26.913,20.2,26.541,19.643,26.624z"/>
		<path fill="#71C2EE" d="M18.573,29.514l-3.451,0.538c-0.546,0.085-0.919,0.597-0.834,1.143c0.077,0.493,0.503,0.846,0.987,0.846
			c0.051,0,0.103-0.004,0.155-0.012l3.451-0.538c0.546-0.085,0.919-0.597,0.834-1.143C19.631,29.803,19.13,29.433,18.573,29.514z"/>
		<path fill="#71C2EE" d="M17,6.155c0.553,0,1-0.447,1-1V2.96c0-0.553-0.447-1-1-1s-1,0.447-1,1v2.195
			C16,5.708,16.447,6.155,17,6.155z"/>
		<path fill="#71C2EE" d="M24.901,5.32l-1.426,1.693c-0.356,0.423-0.302,1.054,0.12,1.409c0.188,0.158,0.417,0.235,0.644,0.235
			c0.285,0,0.568-0.121,0.766-0.355l1.426-1.693c0.356-0.423,0.302-1.054-0.12-1.409C25.885,4.844,25.256,4.9,24.901,5.32z"/>
		<path fill="#71C2EE" d="M27.694,14.266c0.09,0,0.181-0.012,0.271-0.037l2.271-0.637c0.532-0.149,0.843-0.701,0.693-1.232
			c-0.149-0.533-0.703-0.842-1.232-0.693l-2.271,0.637c-0.532,0.149-0.843,0.701-0.693,1.232
			C26.856,13.978,27.258,14.266,27.694,14.266z"/>
		<path fill="#71C2EE" d="M6.21,18.272l-2.447,0.688C3.23,19.11,2.921,19.663,3.07,20.194c0.124,0.441,0.525,0.729,0.962,0.729
			c0.09,0,0.182-0.012,0.271-0.037l2.447-0.688c0.532-0.149,0.842-0.702,0.692-1.233C7.294,18.433,6.737,18.126,6.21,18.272z"/>
		<path fill="#71C2EE" d="M30.132,19.426l-2.133-0.681c-0.525-0.169-1.089,0.123-1.257,0.649c-0.167,0.525,0.123,1.089,0.649,1.257
			l2.133,0.681c0.101,0.032,0.203,0.047,0.304,0.047c0.424,0,0.817-0.271,0.953-0.696C30.948,20.157,30.658,19.594,30.132,19.426z"
			/>
		<path fill="#71C2EE" d="M3.866,13.122l1.998,0.641c0.102,0.032,0.205,0.048,0.306,0.048c0.423,0,0.816-0.271,0.952-0.694
			c0.169-0.526-0.121-1.089-0.646-1.258l-1.998-0.641c-0.528-0.168-1.09,0.122-1.258,0.646C3.051,12.391,3.341,12.953,3.866,13.122z
			"/>
		<path fill="#71C2EE" d="M10.382,8.337c0.425-0.354,0.482-0.984,0.129-1.408l-1.365-1.64C8.792,4.865,8.162,4.807,7.737,5.16
			S7.255,6.145,7.608,6.568l1.365,1.64c0.198,0.237,0.482,0.36,0.77,0.36C9.969,8.568,10.195,8.492,10.382,8.337z"/>
	</g>
</g>
</svg>
