<?xml version="1.0" encoding="utf-8"?>
<!-- Generator: Adobe Illustrator 16.0.0, SVG Export Plug-In . SVG Version: 6.00 Build 0)  -->
<!DOCTYPE svg PUBLIC "-//W3C//DTD SVG 1.1//EN" "http://www.w3.org/Graphics/SVG/1.1/DTD/svg11.dtd">
<svg version="1.1" id="Layer_1" xmlns="http://www.w3.org/2000/svg" xmlns:xlink="http://www.w3.org/1999/xlink" x="0px" y="0px"
	 width="34px" height="34px" viewBox="0 0 34 34" enable-background="new 0 0 34 34" xml:space="preserve">
<g>
	<g>
		<rect y="0.001" fill="none" width="34" height="33.998"/>
	</g>
	<g>
		<path fill="#F9C12F" d="M8.021,12.569h11.135c0.553,0,1-0.448,1-1s-0.447-1-1-1H8.021c-0.552,0-1,0.448-1,1
			S7.469,12.569,8.021,12.569z"/>
		<path fill="#F9C12F" d="M15.969,15.793c0-0.552-0.448-1-1-1H8.021c-0.552,0-1,0.448-1,1s0.448,1,1,1h6.948
			C15.521,16.793,15.969,16.345,15.969,15.793z"/>
		<path fill="#F9C12F" d="M30.314,9.951c-1.344-1.347-3.691-1.346-5.035,0l-0.746,0.746V5.788c0-0.552-0.447-1-1-1H6.313
			c-2.023,0-3.669,1.779-3.669,3.965v20.012c0,0.553,0.448,1,1,1h16.924c2.187,0,3.965-1.779,3.965-3.966v-5.031l5.781-5.782
			C31.703,13.597,31.703,11.338,30.314,9.951z M22.533,25.799c0,1.084-0.882,1.966-1.965,1.966H4.645V8.753
			c0-1.083,0.749-1.965,1.669-1.965h16.22v5.908l-7.388,7.387c-0.125,0.125-0.215,0.281-0.26,0.453l-1.291,4.913
			c-0.09,0.344,0.009,0.71,0.26,0.961c0.19,0.19,0.445,0.293,0.707,0.293c0.085,0,0.17-0.011,0.254-0.033l4.913-1.291
			c0.172-0.045,0.328-0.135,0.453-0.26l2.352-2.352V25.799z M16.591,21.914l1.76,1.76l-2.387,0.627L16.591,21.914z M28.9,13.571
			l-8.911,8.912l-2.208-2.208l8.913-8.912c0.59-0.589,1.617-0.589,2.207,0C29.509,11.973,29.509,12.963,28.9,13.571z"/>
	</g>
</g>
</svg>
